<svg xmlns="http://www.w3.org/2000/svg" xmlns:xlink="http://www.w3.org/1999/xlink" width="94" height="20">
  <linearGradient id="smooth" x2="0" y2="100%">
    <stop offset="0" stop-color="#bbb" stop-opacity=".1"/>
    <stop offset="1" stop-opacity=".1"/>
  </linearGradient>

  <mask id="round">
    <rect width="94" height="20" rx="3" fill="#fff"/>
  </mask>

  <g mask="url(#round)">
    <rect width="43" height="20" fill="#41c464"/>
    <rect x="43" width="51" height="20" fill="#555"/>
    <rect width="94" height="20" fill="url(#smooth)"/>
  </g>

  <g fill="#fff" text-anchor="middle" font-family="DejaVu Sans,Verdana,Geneva,sans-serif" font-size="11">
    <path d="m 9.7196219,4.2202987 -2.7802854,2.7796601 -3.1893438,0 C 3.3356217,6.9999588 3,7.3355788 3,7.7499488 l 0,4.4999592 c 0,0.41405 0.3356217,0.74999 0.7499927,0.74999 l 3.1893438,0 2.7802854,2.77966 c 0.4696831,0.46968 1.2803001,0.13969 1.2803001,-0.53031 l 0,-10.4986493 c 0,-0.67061 -0.811242,-0.99936 -1.2803001,-0.5303 z m 7.7064871,5.7796295 1.426236,-1.426239 c 0.196873,-0.19687 0.196873,-0.51624 0,-0.7131204 l -0.713118,-0.71311 c -0.196873,-0.19688 -0.516245,-0.19688 -0.713118,0 L 15.999873,8.5736892 14.573637,7.1474588 c -0.196873,-0.19688 -0.516245,-0.19688 -0.713118,0 l -0.713118,0.71311 c -0.196873,0.1968804 -0.196873,0.5162504 0,0.7131204 l 1.426236,1.426239 -1.425924,1.4259198 c -0.196873,0.19688 -0.196873,0.51625 0,0.71312 l 0.713118,0.71312 c 0.196874,0.19687 0.516245,0.19687 0.713118,0 l 1.425924,-1.42593 1.426236,1.42624 c 0.196873,0.19687 0.516245,0.19687 0.713118,0 l 0.713118,-0.71312 c 0.196873,-0.19687 0.196873,-0.51624 0,-0.71312 L 17.426109,9.9999282 Z"/>
    <text x="31" y="15" fill="#010101" fill-opacity=".3">OK</text>
    <text x="31" y="14">OK</text>
    <text x="68" y="15" fill="#010101" fill-opacity=".3">1 week</text>
    <text x="68" y="14">1 week</text>
  </g>
</svg>